
<!-- Generator: visioncortex VTracer 0.6.4 -->
<svg version="1.1" xmlns="http://www.w3.org/2000/svg" viewBox="0 0 512 512" preserveAspectRatio="xMidYMid meet">
<path d="M0 0 C2.42 2.718 3.967 5.84 5.625 9.062 C6.133 9.999 6.641 10.936 7.164 11.901 C8.246 13.901 9.316 15.908 10.376 17.919 C12.489 21.929 14.654 25.908 16.818 29.89 C17.906 31.896 18.991 33.903 20.073 35.912 C23.796 42.825 27.616 49.676 31.5 56.5 C36.563 65.398 41.481 74.367 46.34 83.378 C49.485 89.208 52.652 95.025 55.875 100.812 C56.26 101.505 56.646 102.197 57.043 102.91 C58.956 106.343 60.873 109.774 62.792 113.204 C64.448 116.166 66.102 119.128 67.755 122.092 C68.717 123.816 69.683 125.539 70.648 127.261 C81.844 147.342 81.844 147.342 84.312 155.812 C84.618 156.83 84.924 157.847 85.238 158.895 C86.761 165.102 87.159 171.085 87.125 177.438 C87.129 178.15 87.133 178.862 87.137 179.596 C87.13 183.246 86.949 186.214 86.098 189.809 C85.271 195.827 89.284 200.721 92.312 205.625 C93.521 207.635 94.726 209.648 95.926 211.664 C96.466 212.545 97.007 213.427 97.564 214.334 C101.898 222.379 102.226 231.102 100.383 239.969 C94.593 257.801 79.47 268.416 63.602 276.734 C50.695 283.234 36.616 288.829 22 286 C19.238 283.238 19.421 280.793 19 277 C11.221 285.27 3.465 293.557 -4.191 301.941 C-7.436 305.485 -10.718 308.991 -14 312.5 C-18.429 317.239 -22.853 321.981 -27.25 326.75 C-28.557 328.165 -28.557 328.165 -29.891 329.609 C-32.103 332.008 -32.103 332.008 -34 335 C-33.432 335.594 -32.863 336.189 -32.277 336.801 C-24.692 344.944 -15.269 355.368 -14.562 367.062 C-15.366 374.29 -19.64 377.769 -24.926 382.215 C-26.884 383.9 -28.694 385.653 -30.5 387.5 C-32.891 389.934 -35.35 392.214 -37.938 394.438 C-40.746 396.856 -43.4 399.359 -46 402 C-49.222 405.272 -52.586 408.293 -56.066 411.285 C-57.955 412.96 -59.732 414.699 -61.5 416.5 C-63.891 418.934 -66.35 421.214 -68.938 423.438 C-71.746 425.856 -74.4 428.359 -77 431 C-80.222 434.272 -83.586 437.293 -87.066 440.285 C-88.955 441.96 -90.732 443.699 -92.5 445.5 C-96.156 449.214 -100.044 452.611 -104 456 C-104.657 456.574 -105.315 457.147 -105.992 457.738 C-106.614 458.278 -107.235 458.819 -107.875 459.375 C-108.706 460.098 -108.706 460.098 -109.555 460.836 C-113.525 464.034 -118.147 463.467 -123 463 C-130.302 461.288 -135.136 455.134 -140.137 449.941 C-142.277 447.721 -144.463 445.627 -146.812 443.625 C-150.88 440.135 -154.858 436.554 -158.812 432.938 C-159.472 432.347 -160.131 431.757 -160.81 431.149 C-165.268 427.044 -168.466 423.422 -169.434 417.219 C-169.435 416.322 -169.436 415.424 -169.438 414.5 C-169.457 413.603 -169.476 412.706 -169.496 411.781 C-168.374 405.491 -163.042 400.457 -159.062 395.625 C-157.9 394.203 -156.737 392.781 -155.574 391.359 C-154.685 390.276 -154.685 390.276 -153.779 389.17 C-150.97 385.744 -148.171 382.311 -145.375 378.875 C-144.834 378.21 -144.292 377.545 -143.734 376.86 C-140.298 372.628 -136.915 368.36 -133.562 364.062 C-128.344 357.376 -122.954 350.838 -117.551 344.301 C-114.121 340.152 -110.71 335.988 -107.312 331.812 C-106.781 331.16 -106.249 330.508 -105.702 329.835 C-103.07 326.594 -100.47 323.332 -97.918 320.027 C-97.18 319.073 -97.18 319.073 -96.427 318.1 C-95.508 316.909 -94.595 315.715 -93.689 314.515 C-90.047 309.787 -86.252 305.424 -80.125 304.625 C-70.865 304.817 -62.625 310.588 -55.57 316.035 C-52.787 318.163 -49.931 320.082 -47 322 C-38.871 313.394 -30.759 304.778 -22.781 296.031 C-19.508 292.452 -16.19 288.915 -12.875 285.375 C-7.512 279.645 -2.216 273.864 3 268 C1.453 268.062 1.453 268.062 -0.125 268.125 C-3.029 267.737 -3.832 267.21 -5.695 264.883 C-7.224 262.295 -8.624 259.672 -10 257 C-10.552 256.108 -11.103 255.216 -11.672 254.297 C-13 252 -13 252 -13 250 C-13.606 249.853 -14.212 249.706 -14.836 249.555 C-32.889 244.722 -46.938 231.42 -56.234 215.615 C-60.399 208.397 -64.438 201.105 -68.49 193.823 C-72.611 186.431 -76.834 179.107 -81.125 171.812 C-86.089 163.363 -90.873 154.836 -95.534 146.216 C-100.682 136.702 -106.016 127.296 -111.359 117.891 C-114.08 113.098 -116.789 108.299 -119.5 103.5 C-122.829 97.608 -126.16 91.716 -129.496 85.828 C-130.072 84.81 -130.649 83.793 -131.242 82.744 C-132.331 80.821 -133.421 78.897 -134.512 76.975 C-135.511 75.21 -136.504 73.441 -137.492 71.67 C-138.55 69.797 -139.638 67.94 -140.747 66.096 C-141.306 65.141 -141.865 64.187 -142.441 63.203 C-142.955 62.349 -143.469 61.494 -143.998 60.614 C-145.262 57.317 -144.923 55.371 -144 52 C-142.312 50.062 -142.312 50.062 -140 49 C-137 49 -137 49 -134 50 C-131.187 53.151 -129.04 56.459 -127.004 60.148 C-126.452 61.142 -125.9 62.135 -125.332 63.158 C-124.748 64.22 -124.164 65.281 -123.562 66.375 C-122.304 68.643 -121.045 70.912 -119.785 73.18 C-119.151 74.324 -118.517 75.468 -117.864 76.647 C-115.103 81.614 -112.303 86.557 -109.5 91.5 C-104.954 99.528 -100.438 107.572 -95.938 115.625 C-91.185 124.127 -86.385 132.599 -81.539 141.047 C-77.648 147.84 -73.817 154.666 -70 161.5 C-64.678 171.024 -59.318 180.525 -53.875 189.98 C-51.929 193.363 -50.016 196.762 -48.125 200.176 C-41.981 211.18 -35.986 220.078 -26 228 C-30.347 219.215 -34.773 210.476 -39.305 201.785 C-40.692 199.114 -42.079 196.442 -43.466 193.77 C-44.413 191.951 -45.363 190.133 -46.316 188.317 C-47.718 185.645 -49.106 182.966 -50.492 180.285 C-50.916 179.485 -51.34 178.685 -51.777 177.86 C-57.366 166.971 -58.265 156.858 -55.016 145.07 C-49.128 127.271 -34.033 115.723 -17.918 107.41 C-6.039 101.804 7.236 99.298 20 103.625 C34.033 109.697 42.263 119.57 49.688 132.625 C50.376 133.813 51.065 135 51.756 136.187 C53.159 138.6 54.556 141.017 55.947 143.437 C59.075 148.875 62.256 154.281 65.438 159.688 C65.987 160.631 66.536 161.575 67.102 162.547 C67.603 163.402 68.105 164.256 68.621 165.137 C69.059 165.887 69.496 166.636 69.947 167.409 C70.295 167.934 70.642 168.459 71 169 C71.33 169 71.66 169 72 169 C69.014 152.858 60.492 138.757 52.493 124.644 C49.593 119.507 46.738 114.345 43.875 109.188 C43.239 108.043 42.604 106.899 41.949 105.721 C34.263 91.887 26.628 78.026 18.99 64.167 C17.308 61.115 15.626 58.064 13.943 55.013 C12.615 52.605 11.289 50.197 9.963 47.788 C6.569 41.626 3.15 35.479 -0.305 29.352 C-1.347 27.497 -2.389 25.642 -3.431 23.787 C-4.413 22.043 -5.403 20.303 -6.393 18.564 C-6.984 17.512 -7.575 16.459 -8.184 15.375 C-8.705 14.455 -9.226 13.534 -9.763 12.586 C-11.007 9.985 -11.703 7.864 -12 5 C-9.109 -1.058 -6.491 -1.966 0 0 Z M-34 136 C-39.54 143.083 -43.801 150.743 -43.555 159.941 C-41.456 171.515 -33.61 182.692 -27.987 192.86 C-23.138 201.651 -18.546 210.566 -13.975 219.504 C-9.063 229.107 -4.029 238.622 1.371 247.963 C4.365 253.281 5.95 257.978 7 264 C7.722 263.278 8.444 262.556 9.188 261.812 C10.58 260.42 10.58 260.42 12 259 C13.299 257.608 13.299 257.608 14.625 256.188 C17 254 17 254 20 254 C21.713 249.908 23.422 245.815 25.127 241.72 C25.708 240.326 26.29 238.933 26.873 237.541 C27.71 235.542 28.543 233.541 29.375 231.539 C30.129 229.732 30.129 229.732 30.898 227.889 C32.119 225.204 32.119 225.204 32 223 C37.226 227.54 42.393 232.139 47.523 236.785 C50.499 239.447 53.538 242.029 56.602 244.59 C58 246 58 246 58 248 C57.162 248.368 56.325 248.735 55.461 249.114 C52.35 250.489 49.247 251.879 46.147 253.28 C44.805 253.882 43.461 254.478 42.114 255.069 C40.175 255.919 38.247 256.791 36.32 257.668 C35.158 258.186 33.995 258.705 32.797 259.239 C29.6 261.252 29.015 262.443 28 266 C26.711 267.766 26.711 267.766 25.375 269.25 C22.891 271.521 22.891 271.521 23 273 C42.134 274.587 61.466 263.615 76 252 C78.666 249.517 80.909 246.981 83 244 C83.431 243.388 83.861 242.775 84.305 242.145 C87.735 236.408 88.327 230.5 87 224 C84.878 219.172 82.239 214.785 79.442 210.322 C77.359 206.967 75.374 203.557 73.378 200.15 C71.724 197.331 70.059 194.52 68.391 191.711 C65.085 186.146 61.792 180.573 58.5 175 C57.423 173.178 56.346 171.357 55.27 169.535 C53.035 165.753 50.803 161.969 48.574 158.184 C45.861 153.577 43.136 148.977 40.406 144.381 C39.164 142.277 37.94 140.165 36.723 138.047 C30.317 127.138 23.426 118.716 10.855 115.441 C-5.797 112.531 -23.026 124.455 -34 136 Z M-72 322 C-70.372 325.757 -67.986 328.617 -65.375 331.75 C-64.558 332.735 -63.74 333.72 -62.898 334.734 C-62.272 335.482 -61.645 336.23 -61 337 C-59.68 335.68 -58.36 334.36 -57 333 C-58.746 331.537 -60.497 330.08 -62.25 328.625 C-63.225 327.813 -64.199 327.001 -65.203 326.164 C-67.455 324.421 -69.407 323.124 -72 322 Z M-86 328 C-90.9 333.059 -95.315 338.562 -99.68 344.082 C-102.527 347.663 -105.42 351.205 -108.312 354.75 C-112.473 359.854 -116.58 364.992 -120.625 370.188 C-124.584 375.268 -128.681 380.206 -132.869 385.1 C-137.657 390.72 -142.184 396.537 -146.719 402.362 C-149.776 406.27 -152.891 410.133 -156 414 C-153.418 419.174 -149.449 422.591 -145.25 426.438 C-143.718 427.851 -142.187 429.265 -140.656 430.68 C-139.882 431.394 -139.107 432.107 -138.309 432.843 C-136.077 434.928 -133.893 437.051 -131.719 439.195 C-131.049 439.847 -130.38 440.499 -129.69 441.17 C-128.42 442.409 -127.159 443.66 -125.911 444.922 C-122.71 448.048 -122.71 448.048 -118.535 449.285 C-114.627 447.304 -111.793 444.431 -108.688 441.375 C-107.255 439.998 -105.823 438.622 -104.391 437.246 C-103.662 436.54 -102.933 435.833 -102.182 435.105 C-98.802 431.844 -95.37 428.642 -91.938 425.438 C-90.604 424.188 -89.271 422.938 -87.938 421.688 C-81.017 415.204 -74.081 408.738 -67.146 402.271 C-64.053 399.386 -60.961 396.501 -57.871 393.613 C-55.097 391.022 -52.317 388.438 -49.535 385.855 C-48.065 384.487 -46.595 383.119 -45.125 381.75 C-44.428 381.106 -43.732 380.461 -43.014 379.797 C-42.052 378.9 -42.052 378.9 -41.07 377.984 C-40.501 377.456 -39.931 376.927 -39.344 376.382 C-37.884 375.02 -37.884 375.02 -37 373 C-37.678 372.587 -38.356 372.175 -39.055 371.75 C-56.354 361.016 -71.24 347.45 -83 330.812 C-83.99 329.42 -83.99 329.42 -85 328 C-85.33 328 -85.66 328 -86 328 Z M-45 345 C-46.026 346.313 -47.027 347.647 -48 349 C-46.444 350.299 -44.88 351.589 -43.312 352.875 C-42.442 353.594 -41.572 354.314 -40.676 355.055 C-38.152 356.889 -35.937 357.995 -33 359 C-36.18 353.912 -39.825 349.318 -44 345 C-44.33 345 -44.66 345 -45 345 Z " fill="#000000" transform="translate(197,23)"/>
<path d="M0 0 C2.322 -0.037 4.643 -0.062 6.965 -0.082 C7.667 -0.093 8.37 -0.104 9.093 -0.116 C15.676 -0.144 19.62 1.231 24.367 5.657 C30.397 12.116 30.978 18.904 31.361 27.415 C31.415 28.463 31.469 29.51 31.524 30.589 C31.703 34.109 31.869 37.629 32.035 41.149 C32.161 43.678 32.287 46.208 32.414 48.737 C32.797 56.43 33.165 64.123 33.531 71.816 C33.71 75.572 33.891 79.328 34.072 83.084 C34.836 98.974 35.591 114.865 36.34 130.756 C36.378 131.558 36.416 132.36 36.455 133.187 C36.883 142.289 37.311 151.392 37.736 160.495 C38.081 167.899 38.43 175.303 38.782 182.706 C39.001 187.331 39.217 191.955 39.431 196.58 C39.562 199.42 39.698 202.259 39.834 205.099 C39.926 207.037 40.014 208.975 40.102 210.914 C40.157 212.065 40.213 213.217 40.271 214.403 C40.341 215.902 40.341 215.902 40.413 217.43 C40.701 220.811 40.701 220.811 41.637 224.043 C43.973 225.168 46.136 226.032 48.574 226.856 C59.111 230.75 68.27 236.35 73.949 246.356 C75.928 254.092 75.814 262.296 75.875 270.235 C75.885 271.285 75.895 272.336 75.905 273.418 C76.082 297.288 75.758 320.483 71.637 344.043 C71.518 344.733 71.399 345.423 71.277 346.133 C67.417 368.457 62.105 390.337 55.637 412.043 C55.348 413.018 55.348 413.018 55.054 414.012 C53.752 418.392 52.397 422.752 51.012 427.106 C50.508 428.747 50.508 428.747 49.995 430.42 C47.324 438.511 43.493 445.362 35.699 449.418 C24.018 453.721 10.544 453.349 -1.746 453.309 C-3.259 453.31 -4.772 453.312 -6.285 453.315 C-9.426 453.318 -12.567 453.314 -15.708 453.304 C-19.693 453.293 -23.677 453.299 -27.662 453.311 C-30.776 453.319 -33.891 453.316 -37.005 453.311 C-38.473 453.31 -39.941 453.311 -41.408 453.316 C-55.552 453.352 -68.921 452.918 -81.176 445.293 C-86.965 439.338 -89.09 430.461 -91.551 422.731 C-92.128 420.92 -92.128 420.92 -92.718 419.073 C-106.376 375.671 -115.629 330.542 -115.551 284.918 C-115.549 284.154 -115.548 283.389 -115.547 282.602 C-115.435 247.189 -115.435 247.189 -109.23 239.782 C-102.364 233.39 -89.274 224.043 -79.363 224.043 C-79.37 223.02 -79.378 221.996 -79.385 220.942 C-79.436 210.44 -79.175 199.978 -78.736 189.487 C-78.669 187.806 -78.601 186.125 -78.534 184.444 C-78.354 179.933 -78.169 175.423 -77.983 170.913 C-77.787 166.16 -77.596 161.407 -77.403 156.654 C-77.08 148.678 -76.755 140.702 -76.427 132.726 C-76.05 123.545 -75.677 114.364 -75.306 105.183 C-74.947 96.297 -74.586 87.412 -74.223 78.527 C-74.07 74.769 -73.917 71.012 -73.765 67.254 C-73.585 62.819 -73.404 58.384 -73.221 53.95 C-73.155 52.336 -73.089 50.722 -73.024 49.108 C-72.821 44.086 -72.604 39.064 -72.363 34.043 C-72.328 33.311 -72.294 32.579 -72.258 31.824 C-72.151 29.64 -72.034 27.458 -71.914 25.275 C-71.846 24.006 -71.778 22.738 -71.708 21.431 C-71.118 15.638 -69.692 11.25 -65.426 7.207 C-53.733 -1.949 -34.635 0.892 -20.301 0.481 C-19.544 0.459 -18.787 0.436 -18.007 0.414 C-12.005 0.24 -6.003 0.11 0 0 Z M-20.026 14.127 C-24.004 14.195 -27.982 14.276 -31.96 14.366 C-33.514 14.401 -35.069 14.433 -36.623 14.464 C-38.817 14.509 -41.01 14.568 -43.203 14.629 C-45.096 14.676 -45.096 14.676 -47.027 14.725 C-50.263 15.034 -52.505 15.519 -55.363 17.043 C-58.806 22.208 -58.501 28.235 -58.749 34.305 C-58.779 35.002 -58.808 35.699 -58.838 36.417 C-58.935 38.734 -59.027 41.052 -59.119 43.37 C-59.188 45.04 -59.257 46.709 -59.327 48.379 C-59.514 52.907 -59.696 57.435 -59.878 61.962 C-60.031 65.758 -60.186 69.554 -60.34 73.35 C-60.707 82.325 -61.069 91.301 -61.429 100.277 C-61.799 109.484 -62.174 118.691 -62.552 127.898 C-62.878 135.837 -63.201 143.776 -63.521 151.715 C-63.711 156.441 -63.902 161.167 -64.097 165.892 C-64.281 170.353 -64.46 174.814 -64.637 179.276 C-64.701 180.894 -64.767 182.511 -64.835 184.129 C-65.364 196.787 -65.363 209.354 -65.363 222.043 C-35.003 222.043 -4.643 222.043 26.637 222.043 C25.832 198.344 25.832 198.344 24.805 174.656 C24.727 173.031 24.65 171.405 24.573 169.78 C24.368 165.48 24.161 161.18 23.953 156.879 C23.778 153.26 23.605 149.641 23.431 146.021 C23.022 137.49 22.611 128.959 22.198 120.427 C21.775 111.66 21.354 102.893 20.936 94.126 C20.573 86.541 20.209 78.956 19.843 71.37 C19.625 66.864 19.408 62.358 19.194 57.851 C18.993 53.632 18.789 49.413 18.583 45.194 C18.508 43.653 18.434 42.111 18.362 40.57 C18.659 27.429 18.659 27.429 14.905 15.508 C12.145 13.726 10.623 13.566 7.352 13.618 C6.28 13.625 5.208 13.633 4.104 13.641 C2.357 13.685 2.357 13.685 0.574 13.731 C-1.241 13.756 -1.241 13.756 -3.094 13.782 C-6.452 13.836 -9.809 13.91 -13.167 13.993 C-15.453 14.046 -17.74 14.088 -20.026 14.127 Z M-98.363 249.043 C-103.884 257.324 -101.363 272.419 -101.363 281.043 C-47.243 281.043 6.877 281.043 62.637 281.043 C63.373 265.256 63.373 265.256 58.262 248.223 C53.395 244.315 48.313 241.604 42.637 239.043 C41.591 238.507 41.591 238.507 40.524 237.96 C30.521 233.475 19.432 234.386 8.699 234.372 C6.451 234.359 4.203 234.345 1.955 234.331 C-2.748 234.307 -7.452 234.3 -12.156 234.302 C-18.133 234.303 -24.108 234.248 -30.084 234.179 C-34.727 234.134 -39.37 234.127 -44.014 234.129 C-46.215 234.124 -48.415 234.107 -50.615 234.075 C-68.551 233.844 -84.511 236.814 -98.363 249.043 Z M-101.363 295.043 C-101.363 303.645 -101.108 311.578 -100.176 320.043 C-100.043 321.25 -99.911 322.456 -99.775 323.699 C-97.754 357.853 -97.754 357.853 -86.363 388.043 C-84.63 388.14 -82.892 388.165 -81.156 388.164 C-80.027 388.165 -78.898 388.166 -77.735 388.168 C-76.485 388.164 -75.236 388.161 -73.949 388.157 C-72.642 388.157 -71.335 388.157 -69.988 388.157 C-66.393 388.158 -62.798 388.152 -59.203 388.145 C-55.45 388.139 -51.697 388.138 -47.944 388.137 C-40.833 388.134 -33.721 388.125 -26.61 388.115 C-18.516 388.104 -10.421 388.099 -2.327 388.094 C14.327 388.083 30.982 388.066 47.637 388.043 C48.283 385.805 48.928 383.565 49.571 381.326 C50.11 379.455 50.11 379.455 50.659 377.547 C51.763 373.591 52.658 369.674 53.453 365.645 C53.595 364.931 53.737 364.216 53.883 363.48 C54.33 361.211 54.766 358.94 55.199 356.668 C55.351 355.883 55.502 355.098 55.658 354.29 C57.526 344.554 59.268 334.819 60.512 324.981 C60.62 324.135 60.727 323.29 60.838 322.419 C61.884 313.303 62.153 304.239 62.637 295.043 C8.517 295.043 -45.603 295.043 -101.363 295.043 Z M-82.363 402.043 C-80.906 409.327 -79.337 415.935 -77.051 422.918 C-76.768 423.841 -76.485 424.764 -76.193 425.715 C-73.942 432.639 -73.942 432.639 -68.363 437.043 C-59.466 439.795 -50.099 439.335 -40.894 439.309 C-39.206 439.31 -37.518 439.312 -35.83 439.315 C-32.307 439.318 -28.783 439.314 -25.26 439.304 C-20.768 439.293 -16.277 439.299 -11.785 439.311 C-8.303 439.319 -4.822 439.316 -1.341 439.311 C0.315 439.31 1.97 439.311 3.625 439.316 C19.502 440.134 19.502 440.134 33.345 433.975 C36.563 429.164 37.89 423.357 39.512 417.856 C39.916 416.546 40.323 415.237 40.731 413.928 C42.775 408.091 42.775 408.091 43.637 402.043 C2.057 402.043 -39.523 402.043 -82.363 402.043 Z " fill="#000000" transform="translate(408.3631286621094,36.956573486328125)"/>
<path d="M0 0 C1.423 1.671 1.423 1.671 2.793 3.832 C3.311 4.647 3.829 5.462 4.362 6.302 C7.298 11.138 10.134 16.024 12.938 20.938 C13.921 22.653 14.906 24.368 15.89 26.083 C16.909 27.859 17.927 29.637 18.945 31.415 C22.283 37.242 25.643 43.058 29 48.875 C29.897 50.431 29.897 50.431 30.812 52.019 C31.39 53.021 31.967 54.023 32.562 55.055 C33.403 56.516 33.403 56.516 34.26 58.007 C35.481 60.107 36.718 62.197 37.968 64.28 C38.604 65.344 39.24 66.408 39.895 67.504 C40.473 68.461 41.052 69.418 41.648 70.405 C43.544 74.045 43.934 76.009 43 80 C41.438 82 41.438 82 39 83 C35.625 83.25 35.625 83.25 32 82 C30.58 80.333 30.58 80.333 29.211 78.176 C28.693 77.361 28.175 76.546 27.642 75.707 C24.682 70.828 21.826 65.895 19 60.938 C17.676 58.629 16.352 56.32 15.027 54.012 C14.693 53.429 14.359 52.846 14.015 52.245 C11.152 47.254 8.258 42.282 5.354 37.314 C4.17 35.29 2.989 33.264 1.81 31.236 C-0.645 27.015 -3.107 22.804 -5.652 18.637 C-6.035 17.999 -6.418 17.361 -6.813 16.704 C-7.779 15.097 -8.76 13.499 -9.742 11.902 C-11.267 8.383 -11.342 5.798 -11 2 C-7.89 -1.98 -4.506 -1.554 0 0 Z " fill="#000000" transform="translate(217,155)"/>
<path d="M0 0 C3.689 0.692 4.687 1.652 7 4.562 C7.508 7.219 7.508 7.219 7.518 10.277 C7.53 11.425 7.543 12.573 7.556 13.756 C7.548 14.992 7.54 16.227 7.531 17.5 C7.535 18.772 7.539 20.044 7.543 21.355 C7.546 24.046 7.54 26.735 7.521 29.425 C7.499 32.868 7.512 36.311 7.536 39.754 C7.554 43.045 7.541 46.335 7.531 49.625 C7.539 50.86 7.547 52.096 7.556 53.369 C7.543 54.517 7.531 55.665 7.518 56.848 C7.513 58.362 7.513 58.362 7.508 59.906 C6.86 63.293 5.704 64.481 3 66.562 C-0.328 67.08 -0.328 67.08 -4.25 67.094 C-5.293 67.099 -5.293 67.099 -6.356 67.105 C-7.822 67.108 -9.288 67.101 -10.754 67.084 C-12.993 67.063 -15.229 67.084 -17.469 67.109 C-18.896 67.107 -20.323 67.102 -21.75 67.094 C-23.044 67.089 -24.338 67.085 -25.672 67.08 C-29 66.562 -29 66.562 -31.426 64.721 C-33.546 61.814 -33.524 60.082 -33 56.562 C-31.455 54.526 -30.279 53.702 -28 52.562 C-26.406 52.478 -24.808 52.455 -23.211 52.465 C-22.27 52.468 -21.329 52.471 -20.359 52.475 C-19.375 52.483 -18.39 52.491 -17.375 52.5 C-15.886 52.507 -15.886 52.507 -14.367 52.514 C-11.911 52.525 -9.456 52.542 -7 52.562 C-7.009 51.985 -7.018 51.407 -7.027 50.812 C-7.115 44.794 -7.176 38.775 -7.22 32.757 C-7.24 30.511 -7.267 28.266 -7.302 26.02 C-7.35 22.791 -7.373 19.562 -7.391 16.332 C-7.411 15.33 -7.432 14.328 -7.453 13.295 C-7.455 8.892 -7.423 6.285 -5.163 2.425 C-3 0.562 -3 0.562 0 0 Z " fill="#000000" transform="translate(415,183.4375)"/>
<path d="M0 0 C1.089 -0.005 2.179 -0.01 3.301 -0.016 C4.429 -0 5.557 0.015 6.719 0.031 C8.411 0.008 8.411 0.008 10.137 -0.016 C18.324 0.023 18.324 0.023 22.465 2.375 C24.219 4.531 24.219 4.531 24.781 7.531 C24.073 11.307 23.318 12.275 20.219 14.531 C17.286 15.017 14.431 14.909 11.469 14.781 C10.28 14.754 10.28 14.754 9.066 14.727 C7.117 14.68 5.168 14.608 3.219 14.531 C3.242 15.673 3.242 15.673 3.266 16.839 C3.329 20.299 3.368 23.758 3.406 27.219 C3.431 28.417 3.457 29.615 3.482 30.85 C3.497 32.585 3.497 32.585 3.512 34.355 C3.535 35.95 3.535 35.95 3.559 37.577 C3.168 40.975 2.282 42.823 0.219 45.531 C-2.656 46.594 -2.656 46.594 -5.781 46.531 C-8.435 45.062 -8.435 45.062 -10.781 42.531 C-11.289 39.487 -11.484 37.011 -11.445 33.969 C-11.452 32.726 -11.452 32.726 -11.46 31.459 C-11.463 29.71 -11.454 27.962 -11.433 26.214 C-11.406 23.54 -11.433 20.869 -11.465 18.195 C-11.462 16.495 -11.455 14.794 -11.445 13.094 C-11.455 12.296 -11.466 11.498 -11.476 10.676 C-11.396 6.879 -11.129 4.931 -8.601 2.029 C-5.456 0.358 -3.543 0.016 0 0 Z " fill="#000000" transform="translate(370.78125,63.46875)"/>
</svg>