
<!-- Generator: visioncortex VTracer 0.6.4 -->
<svg version="1.1" xmlns="http://www.w3.org/2000/svg" viewBox="0 0 512 512" preserveAspectRatio="xMidYMid meet">
<path d="M0 0 C10.123 8.465 16.914 20.45 18.938 33.5 C19.057 36.221 19.124 38.905 19.125 41.625 C19.134 42.382 19.144 43.139 19.153 43.919 C19.151 48.402 18.61 51.962 17.188 56.25 C16.474 58.837 16.474 58.837 16.938 61.5 C19.536 65.085 22.467 68.036 25.625 71.121 C37.498 82.827 44.963 100.621 48.938 116.5 C49.114 117.198 49.291 117.897 49.473 118.616 C54.696 141.455 50.86 164.273 41.801 185.42 C40.848 187.715 39.966 190.03 39.09 192.355 C32.144 210.667 21.279 234.244 2.938 243.562 C1.122 244.637 1.122 244.637 -0.062 246.5 C-1.88 257.591 0.337 268.46 6.629 277.758 C13.367 286.728 22.024 290.842 32.938 292.5 C35.935 292.722 38.934 292.831 41.938 292.938 C66.443 293.864 88.534 301.014 106.75 317.812 C124.149 336.655 135.402 365.836 134.938 391.5 C136.179 391.442 137.42 391.384 138.699 391.324 C140.341 391.277 141.983 391.232 143.625 391.188 C144.442 391.146 145.258 391.104 146.1 391.061 C150.464 390.972 152.361 391.079 155.988 393.73 C159.044 398.073 158.596 401.382 157.938 406.5 C156.054 417.063 151.843 427.131 143.938 434.5 C144.699 434.504 145.46 434.508 146.245 434.512 C149.706 434.545 153.165 434.616 156.625 434.688 C157.823 434.693 159.021 434.699 160.256 434.705 C170.178 434.954 170.178 434.954 173.266 437.824 C174.938 440.5 174.938 440.5 175 444.125 C173.806 447.918 173.337 448.632 169.938 450.5 C167.424 450.789 165.161 450.907 162.65 450.883 C161.911 450.888 161.172 450.893 160.41 450.898 C157.919 450.911 155.429 450.903 152.938 450.894 C151.14 450.899 149.341 450.905 147.543 450.913 C142.591 450.929 137.638 450.927 132.686 450.921 C127.349 450.919 122.012 450.933 116.675 450.946 C106.216 450.967 95.757 450.971 85.297 450.969 C76.799 450.968 68.3 450.972 59.801 450.979 C57.356 450.981 54.911 450.984 52.466 450.986 C50.641 450.987 50.641 450.987 48.779 450.989 C25.749 451.008 2.72 451.007 -20.309 451 C-41.393 450.994 -62.477 451.015 -83.56 451.048 C-105.192 451.082 -126.824 451.097 -148.456 451.092 C-160.608 451.09 -172.759 451.095 -184.911 451.12 C-195.255 451.141 -205.599 451.145 -215.943 451.126 C-221.224 451.117 -226.504 451.116 -231.785 451.136 C-236.615 451.155 -241.445 451.151 -246.276 451.128 C-248.027 451.124 -249.778 451.128 -251.528 451.141 C-253.903 451.159 -256.275 451.145 -258.649 451.124 C-259.677 451.142 -259.677 451.142 -260.726 451.161 C-264.475 451.09 -266.029 450.526 -269.022 448.188 C-271.062 445.5 -271.062 445.5 -271.125 441.875 C-269.937 438.103 -269.402 437.407 -266.062 435.5 C-263.222 435.068 -263.222 435.068 -259.984 434.988 C-258.244 434.935 -258.244 434.935 -256.469 434.881 C-255.262 434.858 -254.056 434.836 -252.812 434.812 C-251.59 434.778 -250.368 434.744 -249.109 434.709 C-246.094 434.627 -243.079 434.557 -240.062 434.5 C-240.458 434.063 -240.853 433.626 -241.261 433.175 C-250.217 423.045 -253.947 412.169 -254.621 398.859 C-253.734 395.115 -252.151 393.747 -249.062 391.5 C-245.929 390.912 -242.924 391.025 -239.75 391.188 C-238.914 391.21 -238.078 391.233 -237.217 391.256 C-235.165 391.314 -233.113 391.404 -231.062 391.5 C-231.048 390.889 -231.034 390.278 -231.02 389.648 C-229.527 361.007 -218.915 333.402 -198.062 313.5 C-182.399 300.254 -161.574 293.894 -141.3 293.21 C-127.902 292.741 -116.799 291.157 -106.375 282.188 C-98.383 272.9 -94.918 262.556 -95.129 250.246 C-96.824 243.443 -102.073 240.022 -107.4 235.848 C-131.169 216.574 -145.691 175.407 -149.531 145.898 C-150.827 131.905 -149.899 115.982 -142.914 103.438 C-141.875 101.074 -142.034 99.846 -142.438 97.312 C-144.422 80.951 -143.552 66.116 -133.535 52.41 C-124.555 41.401 -110.579 33.645 -96.61 31.305 C-93.109 30.695 -90.336 29.977 -87.062 28.5 C-84.753 25.13 -83.6 21.989 -82.336 18.113 C-78.623 7.579 -68.947 -0.632 -59.312 -5.75 C-39.151 -15.199 -17.939 -13.129 0 0 Z M-64.457 17.398 C-66.831 20.507 -68.403 23.971 -70.062 27.5 C-69.394 27.595 -68.726 27.69 -68.037 27.788 C-41.955 31.558 -20.025 38.518 2.938 51.5 C5.666 43.315 4.555 33.878 1.258 26.027 C-3.84 16.269 -11.523 8.928 -21.875 5.062 C-38.649 0.118 -52.313 5.704 -64.457 17.398 Z M-123.062 63.5 C-127.145 69.684 -128.203 75.21 -128.188 82.5 C-128.19 83.717 -128.193 84.934 -128.195 86.188 C-128.087 88.881 -127.765 90.939 -127.062 93.5 C-126.249 93.54 -125.436 93.579 -124.598 93.62 C-75.187 96.135 -23.49 105.978 11.938 143.5 C19.062 151.573 25.147 160.44 30.938 169.5 C38.481 158.184 37.767 140.249 35.715 127.375 C31.996 108.835 24.89 92.526 11.938 78.5 C11.004 77.446 11.004 77.446 10.051 76.371 C-8.932 56.035 -40.151 44.21 -67.395 42.262 C-87.655 41.83 -109.385 47.603 -123.062 63.5 Z M-129.062 108.5 C-137.926 128.869 -135.492 150.068 -128.062 170.5 C-127.403 171.16 -126.743 171.82 -126.062 172.5 C-125.679 171.731 -125.679 171.731 -125.287 170.946 C-119.987 160.4 -114.663 150.588 -107.062 141.5 C-106.379 140.654 -105.696 139.809 -104.992 138.938 C-96.447 128.847 -85.635 120.819 -74.062 114.5 C-76.809 113 -79.168 112.156 -82.258 111.684 C-83.057 111.559 -83.856 111.435 -84.68 111.307 C-85.507 111.185 -86.335 111.063 -87.188 110.938 C-87.992 110.812 -88.796 110.686 -89.625 110.557 C-99.354 109.072 -108.843 108.352 -118.688 108.438 C-120.194 108.444 -120.194 108.444 -121.73 108.451 C-124.175 108.463 -126.618 108.479 -129.062 108.5 Z M-88.246 142.684 C-89.176 143.613 -90.105 144.542 -91.062 145.5 C-91.878 146.316 -92.694 147.132 -93.535 147.973 C-102.348 157.269 -108.495 168.323 -113.555 180.016 C-115.062 183.5 -115.062 183.5 -116.445 186.109 C-118.383 190.386 -118.338 192.671 -116.84 197.176 C-108.646 215.786 -93.056 233.455 -74.099 241.314 C-56.063 248.086 -38.296 248.699 -20.52 240.957 C-13.352 237.285 -7.071 232.846 -1.062 227.5 C-0.377 226.897 0.309 226.293 1.016 225.672 C11.151 216.175 19.559 202.816 23.891 189.59 C23.959 185.058 22.052 182.269 19.688 178.5 C19.006 177.384 19.006 177.384 18.31 176.245 C2.673 151.174 -19.678 130.952 -48.062 121.5 C-62.722 121.5 -78.178 132.905 -88.246 142.684 Z M-80.062 254.5 C-80.266 256.205 -80.266 256.205 -80.473 257.945 C-82.496 273.115 -87.123 286.118 -99.062 296.5 C-109.983 304.292 -120.366 306.769 -133.562 307.438 C-156.823 308.944 -177.575 313.795 -194.23 331.332 C-208.46 348.171 -213.919 370.062 -216.062 391.5 C-193.952 391.5 -171.843 391.5 -149.062 391.5 C-149.722 385.89 -150.382 380.28 -151.062 374.5 C-151.226 371.166 -151.355 367.947 -151.312 364.625 C-151.306 363.835 -151.3 363.046 -151.294 362.232 C-151.042 347.337 -151.042 347.337 -147.863 342.781 C-139.221 336.632 -117.524 339.536 -107.496 341.066 C-104.294 341.75 -101.195 342.551 -98.062 343.5 C-95.938 344.064 -93.813 344.626 -91.688 345.188 C-90.145 345.621 -88.603 346.057 -87.062 346.5 C-86.517 345.473 -85.972 344.445 -85.41 343.387 C-80.706 334.681 -75.766 326.852 -69.062 319.5 C-68.405 318.773 -67.748 318.046 -67.07 317.297 C-55.469 305.09 -55.469 305.09 -48.086 304.102 C-37.758 305.463 -27.671 317.805 -21.648 325.641 C-16.872 332.267 -12.777 339.231 -9.062 346.5 C-8.431 346.318 -7.799 346.136 -7.148 345.949 C-5.214 345.406 -3.275 344.88 -1.332 344.367 C0.721 343.823 2.768 343.249 4.801 342.633 C13.298 340.365 21.551 340.212 30.312 340.188 C32.132 340.179 32.132 340.179 33.988 340.171 C40.278 340.221 45.962 340.446 51.938 342.5 C55.839 348.268 55.119 357.63 55.125 364.438 C55.137 365.165 55.149 365.893 55.162 366.643 C55.184 375.123 53.95 382.892 52.938 391.5 C75.048 391.5 97.158 391.5 119.938 391.5 C118.367 378.054 118.367 378.054 115.375 365.062 C115.117 364.183 114.86 363.304 114.594 362.399 C108.415 342.432 96.958 326.326 78.312 316.375 C67.701 311.251 56.692 308.831 44.988 308.105 C43.892 308.037 42.796 307.968 41.666 307.896 C39.409 307.758 37.151 307.631 34.893 307.514 C20.106 306.537 7.548 301.611 -2.875 290.875 C-11.709 280.366 -14.259 268.712 -16.062 255.5 C-17.136 255.777 -18.21 256.054 -19.316 256.34 C-20.753 256.706 -22.189 257.072 -23.625 257.438 C-24.682 257.711 -24.682 257.711 -25.76 257.99 C-44.364 262.706 -62.113 260.999 -80.062 254.5 Z M-56.188 327.188 C-70.535 341.591 -78.375 358.144 -78.375 378.691 C-78.005 398.449 -68.669 414.018 -55.062 427.5 C-54.391 428.184 -53.719 428.869 -53.027 429.574 C-51.722 430.899 -50.396 432.203 -49.062 433.5 C-36.287 428.347 -27.215 412.194 -22.129 400.293 C-15.687 383.421 -16.627 366.88 -23.383 350.25 C-28.816 338.613 -37.501 328.967 -47.062 320.5 C-50.9 320.5 -53.598 324.605 -56.188 327.188 Z M-136.062 354.5 C-141.057 364.488 -136.191 382.874 -133.031 392.711 C-126.925 408.761 -114.547 422.105 -99.062 429.5 C-89.266 433.651 -79.692 435.317 -69.062 435.5 C-69.403 435.073 -69.743 434.647 -70.094 434.207 C-82.141 418.668 -92.264 400.602 -92.16 380.445 C-92.157 379.337 -92.154 378.228 -92.15 377.086 C-92.138 375.373 -92.138 375.373 -92.125 373.625 C-92.12 372.46 -92.116 371.294 -92.111 370.094 C-92.1 367.229 -92.083 364.365 -92.062 361.5 C-105.654 355.217 -121.049 351.261 -136.062 354.5 Z M-3.062 360.5 C-4.309 361.516 -4.309 361.516 -4.113 363.639 C-4.082 364.573 -4.051 365.507 -4.02 366.469 C-3.434 391.285 -8.08 409.473 -23.062 429.5 C-24.419 431.485 -25.741 433.491 -27.062 435.5 C-7.017 435.155 8.573 428.598 22.938 414.5 C23.897 413.578 23.897 413.578 24.875 412.637 C36.987 400.011 41.146 382.181 41.062 365.188 C41.066 364.377 41.07 363.567 41.074 362.732 C41.183 358.482 41.183 358.482 39.938 354.5 C25.751 351.266 9.991 354.789 -3.062 360.5 Z M-238.062 406.5 C-236.617 416.023 -231.774 422.674 -224.438 428.809 C-216.796 434.25 -209.47 435.653 -200.255 435.614 C-198.923 435.614 -198.923 435.614 -197.563 435.614 C-194.631 435.613 -191.698 435.605 -188.766 435.598 C-186.731 435.596 -184.697 435.594 -182.662 435.593 C-177.309 435.59 -171.956 435.58 -166.604 435.569 C-161.141 435.558 -155.678 435.554 -150.215 435.549 C-139.497 435.538 -128.78 435.521 -118.062 435.5 C-120.533 433.003 -123.015 430.701 -125.75 428.5 C-131.791 423.272 -137.072 416.518 -140.619 409.357 C-143.234 406.3 -143.436 406.081 -147.15 405.778 C-148.846 405.761 -150.542 405.777 -152.237 405.819 C-153.164 405.818 -154.092 405.817 -155.047 405.816 C-158.11 405.82 -161.171 405.867 -164.234 405.914 C-166.359 405.925 -168.483 405.934 -170.607 405.94 C-176.197 405.963 -181.786 406.022 -187.376 406.088 C-193.08 406.149 -198.784 406.177 -204.488 406.207 C-215.68 406.271 -226.871 406.374 -238.062 406.5 Z M42.307 411.272 C41.477 412.996 40.685 414.739 39.938 416.5 C35.364 423.122 30.052 428.307 23.938 433.5 C23.277 434.16 22.618 434.82 21.938 435.5 C33.499 435.57 45.061 435.623 56.623 435.655 C61.992 435.671 67.362 435.692 72.731 435.726 C77.918 435.759 83.105 435.777 88.292 435.785 C90.266 435.79 92.239 435.801 94.213 435.817 C109.233 435.936 121.406 435.429 132.914 424.648 C137.595 419.649 141.938 413.568 141.938 406.5 C129.672 406.268 117.408 406.091 105.141 405.982 C99.444 405.93 93.749 405.859 88.054 405.746 C82.555 405.637 77.058 405.577 71.559 405.551 C69.463 405.533 67.367 405.497 65.271 405.443 C52.266 404.437 52.266 404.437 42.307 411.272 Z " fill="#000000" transform="translate(304.0625,36.5)"/>
<path d="M0 0 C3.725 1.173 4.527 1.735 6.375 5.062 C6.808 5.97 7.241 6.877 7.688 7.812 C9.223 10.375 9.223 10.375 12.375 10.688 C15.517 10.387 15.517 10.387 16.938 7.875 C17.412 6.947 17.886 6.019 18.375 5.062 C20.625 2.188 20.625 2.188 23.375 0.062 C26.919 0.062 29.241 0.404 32.312 2.188 C34.07 5.289 33.778 7.553 33.375 11.062 C31.33 17.724 27.279 21.559 21.375 25.062 C15.3 27.088 7.923 27.163 2 24.562 C-3.041 21.563 -6.566 17.303 -8.391 11.719 C-9.159 7.452 -9.013 5.668 -6.625 1.938 C-3.625 0.062 -3.625 0.062 0 0 Z " fill="#000000" transform="translate(216.625,199.9375)"/>
<path d="M0 0 C2.92 2.086 3.831 4.671 5 8 C9.481 8.723 9.481 8.723 14 9 C14.268 8.072 14.536 7.144 14.812 6.188 C16.481 1.709 16.481 1.709 19 0 C22.186 -0.881 24.168 -1.292 27.312 -0.188 C29 1 29 1 30 3 C30.523 9.17 29.885 13.1 26 18 C22.116 22.022 17.984 24.616 12.387 25.336 C4.979 25.443 -0.08 24.37 -5.754 19.492 C-9.775 15.326 -11.869 10.841 -12 5 C-10.812 2 -10.812 2 -9 0 C-5.45 -1.183 -3.6 -0.9 0 0 Z " fill="#000000" transform="translate(274,201)"/>
</svg>