
<!-- Generator: visioncortex VTracer 0.6.4 -->
<svg version="1.1" xmlns="http://www.w3.org/2000/svg" viewBox="0 0 512 512" preserveAspectRatio="xMidYMid meet">
<path d="M0 0 C7.95 6.62 13.101 13.713 14.164 24.207 C14.599 34.515 13.085 42.68 6.336 50.727 C-3.019 60.555 -13.281 62.877 -26.409 64.929 C-27.812 65.157 -29.214 65.386 -30.616 65.616 C-33.614 66.106 -36.614 66.589 -39.614 67.066 C-44.361 67.823 -49.105 68.598 -53.848 69.378 C-66.476 71.449 -79.108 73.497 -91.742 75.528 C-100.061 76.866 -108.378 78.216 -116.691 79.587 C-121.404 80.364 -126.119 81.122 -130.837 81.866 C-133.77 82.333 -136.699 82.817 -139.629 83.306 C-141.63 83.634 -143.635 83.943 -145.641 84.251 C-154.186 85.644 -154.186 85.644 -160.227 91.352 C-168.093 98.025 -176.209 101.645 -186.123 104.338 C-188.288 104.941 -188.288 104.941 -191.227 106.352 C-193.17 110.006 -193.483 113.133 -193.505 117.23 C-193.516 118.406 -193.527 119.583 -193.539 120.795 C-193.542 122.717 -193.542 122.717 -193.545 124.679 C-193.555 126.049 -193.565 127.419 -193.576 128.789 C-193.603 132.502 -193.618 136.214 -193.631 139.927 C-193.647 143.809 -193.674 147.692 -193.699 151.574 C-193.746 158.923 -193.783 166.271 -193.816 173.62 C-193.854 181.987 -193.904 190.355 -193.954 198.722 C-194.057 215.932 -194.147 233.142 -194.227 250.352 C-193.426 250.348 -192.626 250.344 -191.801 250.34 C-172.339 250.252 -152.877 250.186 -133.414 250.144 C-124.002 250.124 -114.591 250.096 -105.179 250.05 C-96.976 250.01 -88.774 249.984 -80.572 249.975 C-76.228 249.97 -71.884 249.958 -67.54 249.929 C-63.452 249.902 -59.365 249.893 -55.278 249.899 C-53.776 249.898 -52.275 249.89 -50.774 249.875 C-48.726 249.855 -46.678 249.862 -44.63 249.871 C-43.483 249.867 -42.337 249.863 -41.155 249.859 C-37.584 250.46 -36.409 251.516 -34.227 254.352 C-32.733 262.05 -34.814 270.766 -36.02 278.41 C-36.301 280.247 -36.301 280.247 -36.589 282.12 C-36.988 284.702 -37.39 287.283 -37.797 289.863 C-38.407 293.745 -38.998 297.629 -39.588 301.514 C-41.57 314.353 -43.822 326.978 -47.204 339.528 C-49.202 345.517 -49.202 345.517 -47.75 351.227 C-47.041 352.258 -46.332 353.289 -45.602 354.352 C-38.905 364.571 -35.628 375.421 -33.227 387.352 C-32.275 387.121 -31.324 386.89 -30.344 386.652 C-20.879 384.423 -11.355 382.578 -1.77 380.941 C0.171 380.608 2.11 380.268 4.049 379.927 C20.252 377.217 20.252 377.217 25.773 378.352 C28.527 380.387 29.618 381.572 30.291 384.954 C30.298 386.414 30.298 386.414 30.305 387.902 C30.313 388.986 30.321 390.07 30.33 391.186 C30.302 392.908 30.302 392.908 30.273 394.664 C30.26 395.839 30.246 397.015 30.232 398.226 C29.767 417.844 22.895 434.53 8.98 448.406 C-7.883 464.335 -28.472 467.921 -50.506 471.757 C-52.419 472.091 -54.33 472.434 -56.242 472.777 C-71.024 475.267 -84.343 474.215 -98.976 471.635 C-101.654 471.166 -104.335 470.721 -107.018 470.279 C-131.511 466.125 -131.511 466.125 -141.289 459.977 C-145.078 457.881 -146.032 458.32 -150.227 459.352 C-152.98 460.313 -155.702 461.344 -158.426 462.387 C-176.675 469.368 -195.831 474.381 -215.477 474.59 C-216.244 474.6 -217.011 474.609 -217.802 474.62 C-271.863 475.167 -319.043 458.301 -358.268 420.594 C-392.611 386.862 -406.385 343.991 -413.449 297.591 C-414.044 293.696 -414.657 289.803 -415.271 285.91 C-415.66 283.399 -416.047 280.887 -416.434 278.375 C-416.615 277.229 -416.796 276.083 -416.983 274.902 C-419.265 259.704 -419.265 259.704 -418.227 254.352 C-416.045 251.516 -414.869 250.46 -411.298 249.859 C-410.151 249.863 -409.005 249.867 -407.823 249.871 C-405.846 249.862 -405.846 249.862 -403.829 249.854 C-402.37 249.868 -400.911 249.883 -399.452 249.897 C-397.915 249.899 -396.377 249.898 -394.84 249.896 C-390.666 249.895 -386.493 249.918 -382.32 249.946 C-377.959 249.971 -373.597 249.973 -369.235 249.978 C-360.976 249.991 -352.718 250.023 -344.459 250.063 C-333.298 250.117 -322.138 250.138 -310.977 250.161 C-293.394 250.199 -275.81 250.279 -258.227 250.352 C-258.227 201.512 -258.227 152.672 -258.227 102.352 C-260.537 102.352 -262.847 102.352 -265.227 102.352 C-274.7 100.051 -281.952 94.069 -287.266 86.027 C-291.646 78.388 -291.848 69.551 -290.078 61.125 C-287.403 52.414 -282.039 45.626 -274.133 41.172 C-270.119 39.236 -266.581 38.213 -262.164 37.664 C-256.747 36.751 -254.549 33.971 -251.406 29.641 C-246.543 24.533 -239.883 22.726 -233.133 21.429 C-232.368 21.272 -231.603 21.115 -230.814 20.954 C-228.31 20.445 -225.804 19.952 -223.297 19.461 C-221.538 19.109 -219.78 18.756 -218.022 18.402 C-214.347 17.665 -210.671 16.937 -206.993 16.214 C-202.301 15.291 -197.613 14.35 -192.925 13.403 C-189.298 12.672 -185.668 11.95 -182.038 11.231 C-180.31 10.887 -178.582 10.541 -176.855 10.192 C-153.618 5.514 -153.618 5.514 -143.227 10.352 C-142.583 10.883 -141.939 11.414 -141.276 11.961 C-135.535 15.857 -124.965 11.807 -118.483 10.586 C-115.619 10.033 -112.757 9.474 -109.896 8.912 C-106.795 8.305 -103.693 7.706 -100.589 7.11 C-91.772 5.416 -82.957 3.716 -74.147 1.987 C-68.736 0.926 -63.322 -0.117 -57.905 -1.148 C-55.863 -1.54 -53.823 -1.939 -51.784 -2.345 C-13.465 -9.969 -13.465 -9.969 0 0 Z M-29.89 11.111 C-31.251 11.363 -31.251 11.363 -32.639 11.621 C-34.113 11.901 -34.113 11.901 -35.616 12.188 C-36.661 12.383 -37.705 12.578 -38.781 12.779 C-42.229 13.424 -45.675 14.075 -49.121 14.727 C-51.513 15.175 -53.905 15.624 -56.297 16.072 C-62.589 17.251 -68.88 18.437 -75.171 19.623 C-81.592 20.833 -88.014 22.037 -94.436 23.242 C-107.033 25.607 -119.63 27.977 -132.227 30.352 C-132.346 31.149 -132.465 31.947 -132.588 32.769 C-134.237 43.294 -134.237 43.294 -136.391 48.266 C-136.79 49.211 -137.19 50.155 -137.602 51.129 C-138.014 52.069 -138.427 53.008 -138.852 53.977 C-139.68 55.905 -140.506 57.835 -141.328 59.766 C-141.692 60.6 -142.057 61.435 -142.432 62.295 C-143.347 64.295 -143.347 64.295 -143.227 66.352 C-129.514 64.805 -115.93 62.584 -102.32 60.324 C-99.941 59.931 -97.562 59.537 -95.182 59.144 C-90.227 58.323 -85.271 57.5 -80.316 56.675 C-73.979 55.621 -67.639 54.577 -61.299 53.535 C-56.398 52.728 -51.498 51.914 -46.598 51.098 C-44.261 50.709 -41.923 50.324 -39.585 49.941 C-36.32 49.406 -33.057 48.861 -29.795 48.313 C-28.839 48.158 -27.883 48.004 -26.898 47.845 C-18.478 46.411 -11.462 44.438 -5.227 38.352 C-2.132 33.487 -2.624 27.903 -3.227 22.352 C-5.573 17.485 -8.933 13.53 -14.148 11.664 C-19.561 10.199 -24.366 10.072 -29.89 11.111 Z M-166.697 25.681 C-167.42 25.822 -168.143 25.964 -168.887 26.11 C-171.262 26.576 -173.635 27.051 -176.008 27.527 C-177.666 27.857 -179.325 28.186 -180.984 28.515 C-184.454 29.204 -187.924 29.898 -191.393 30.595 C-195.83 31.486 -200.268 32.364 -204.708 33.238 C-208.133 33.914 -211.555 34.598 -214.977 35.284 C-216.613 35.611 -218.249 35.935 -219.886 36.256 C-222.178 36.707 -224.467 37.169 -226.756 37.634 C-227.426 37.764 -228.096 37.893 -228.787 38.026 C-232.994 38.896 -236.599 40.025 -240.227 42.352 C-243.035 47.119 -242.498 52.431 -242.467 57.785 C-242.469 58.847 -242.47 59.909 -242.472 61.003 C-242.476 64.567 -242.465 68.131 -242.454 71.695 C-242.453 74.247 -242.453 76.799 -242.454 79.352 C-242.455 84.85 -242.449 90.348 -242.438 95.846 C-242.422 103.795 -242.417 111.744 -242.414 119.694 C-242.41 132.591 -242.396 145.488 -242.377 158.385 C-242.359 170.913 -242.345 183.441 -242.336 195.969 C-242.336 196.742 -242.335 197.514 -242.335 198.31 C-242.332 202.184 -242.33 206.059 -242.327 209.933 C-242.306 242.073 -242.271 274.212 -242.227 306.352 C-231.667 306.352 -221.107 306.352 -210.227 306.352 C-210.223 303.839 -210.219 301.326 -210.216 298.737 C-210.179 275.076 -210.121 251.415 -210.043 227.753 C-210.003 215.589 -209.97 203.424 -209.956 191.259 C-209.943 180.655 -209.916 170.052 -209.872 159.449 C-209.849 153.835 -209.834 148.221 -209.835 142.607 C-209.835 137.321 -209.818 132.035 -209.785 126.75 C-209.777 124.811 -209.775 122.873 -209.781 120.935 C-209.787 118.284 -209.769 115.634 -209.746 112.982 C-209.753 112.22 -209.761 111.457 -209.769 110.671 C-209.668 104.328 -207.612 99.298 -203.617 94.363 C-199.157 90.638 -194.913 88.901 -189.352 87.352 C-182.53 85.246 -176.663 83.152 -171.227 78.352 C-170.223 77.487 -170.223 77.487 -169.199 76.605 C-162.698 70.204 -159.58 62.117 -156.219 53.804 C-155.211 51.313 -154.173 48.837 -153.133 46.359 C-152.474 44.754 -151.818 43.147 -151.164 41.539 C-150.853 40.793 -150.541 40.046 -150.22 39.278 C-148.641 35.273 -147.701 32.475 -149.227 28.352 C-150.81 25.935 -150.81 25.935 -153.227 24.352 C-157.854 24.026 -162.182 24.768 -166.697 25.681 Z M-270.102 59.852 C-273.581 63.946 -273.575 67.684 -273.5 72.848 C-273.087 76.633 -271.798 78.582 -269.227 81.352 C-265.589 84.052 -262.871 85.352 -258.227 85.352 C-258.227 75.122 -258.227 64.892 -258.227 54.352 C-262.93 54.352 -266.692 56.886 -270.102 59.852 Z M-400.227 266.352 C-398.644 280.063 -398.644 280.063 -396.711 293.715 C-396.573 294.598 -396.434 295.481 -396.292 296.39 C-396.001 298.23 -395.709 300.068 -395.415 301.907 C-395.124 303.739 -394.839 305.571 -394.56 307.405 C-391.966 324.467 -388.024 341.125 -381.039 356.977 C-380.664 357.836 -380.289 358.696 -379.902 359.582 C-370.107 381.356 -354.818 402.263 -336.227 417.352 C-335.742 417.753 -335.258 418.155 -334.759 418.569 C-299.954 447.386 -255.104 461.661 -210.021 457.457 C-193.15 455.627 -177.012 451.517 -161.227 445.352 C-162.23 441.739 -162.23 441.739 -164.938 439.402 C-168.246 439.329 -170.754 440.388 -173.852 441.539 C-179.719 443.626 -185.581 445.267 -191.664 446.602 C-192.396 446.764 -193.129 446.927 -193.883 447.094 C-235.374 455.968 -280.256 447.015 -315.781 424.098 C-319.007 421.951 -322.126 419.676 -325.227 417.352 C-326.555 416.36 -326.555 416.36 -327.91 415.348 C-347.514 399.996 -361.748 381.29 -373.227 359.352 C-373.702 358.454 -374.178 357.557 -374.668 356.633 C-377.105 351.674 -377.894 347.878 -377.227 342.352 C-376.208 340.652 -376.208 340.652 -374.227 339.352 C-371.44 339.042 -368.872 338.914 -366.083 338.919 C-365.254 338.909 -364.424 338.899 -363.57 338.888 C-360.826 338.858 -358.083 338.849 -355.34 338.84 C-353.438 338.823 -351.537 338.805 -349.636 338.785 C-344.63 338.738 -339.624 338.708 -334.618 338.682 C-329.51 338.652 -324.403 338.606 -319.295 338.561 C-309.272 338.474 -299.249 338.407 -289.227 338.352 C-289.245 337.322 -289.263 336.292 -289.281 335.231 C-289.296 333.866 -289.31 332.501 -289.324 331.137 C-289.337 330.46 -289.35 329.782 -289.364 329.085 C-289.414 322.461 -288.097 318.378 -283.578 313.613 C-275.746 306.448 -269.623 307.111 -258.227 306.352 C-258.227 293.152 -258.227 279.952 -258.227 266.352 C-305.087 266.352 -351.947 266.352 -400.227 266.352 Z M-194.227 266.352 C-194.227 279.552 -194.227 292.752 -194.227 306.352 C-189.277 306.682 -184.327 307.012 -179.227 307.352 C-172.248 309.837 -167.517 313.789 -164.158 320.481 C-162.99 324.08 -163.009 327.428 -163.102 331.164 C-163.111 331.857 -163.12 332.55 -163.129 333.264 C-163.152 334.96 -163.188 336.656 -163.227 338.352 C-153.621 338.514 -144.015 338.638 -134.408 338.714 C-129.947 338.751 -125.486 338.8 -121.024 338.88 C-116.713 338.956 -112.402 338.998 -108.089 339.016 C-106.45 339.029 -104.812 339.054 -103.174 339.092 C-94.166 339.292 -87.351 339.208 -80.23 332.92 C-77.949 331.135 -76.717 330.8 -73.852 330.727 C-70.237 331.35 -68.933 332.046 -66.227 334.352 C-65.237 334.022 -64.247 333.692 -63.227 333.352 C-62.399 330.785 -61.797 328.383 -61.273 325.75 C-61.023 324.555 -61.023 324.555 -60.767 323.337 C-58.85 313.94 -57.373 304.467 -55.934 294.987 C-55.47 291.931 -54.995 288.875 -54.52 285.82 C-54.218 283.865 -53.917 281.909 -53.617 279.953 C-53.477 279.046 -53.336 278.139 -53.191 277.204 C-53.064 276.361 -52.937 275.519 -52.806 274.651 C-52.693 273.915 -52.581 273.178 -52.465 272.42 C-52.15 270.036 -52.15 270.036 -52.227 266.352 C-99.087 266.352 -145.947 266.352 -194.227 266.352 Z M-272.227 325.352 C-273.647 328.192 -273.541 330.206 -273.227 333.352 C-270.994 336.199 -269.677 337.202 -266.227 338.352 C-263.688 338.458 -261.176 338.509 -258.637 338.513 C-257.481 338.52 -257.481 338.52 -256.301 338.528 C-253.749 338.542 -251.197 338.549 -248.645 338.555 C-246.87 338.56 -245.095 338.566 -243.32 338.572 C-239.596 338.582 -235.873 338.588 -232.15 338.592 C-227.385 338.597 -222.621 338.621 -217.856 338.65 C-214.189 338.668 -210.521 338.674 -206.854 338.675 C-205.097 338.678 -203.341 338.686 -201.585 338.699 C-199.124 338.716 -196.664 338.714 -194.204 338.708 C-193.482 338.717 -192.76 338.726 -192.017 338.736 C-187.366 338.698 -184.171 337.818 -180.227 335.352 C-178.806 332.511 -178.912 330.497 -179.227 327.352 C-181.459 324.504 -182.776 323.502 -186.227 322.352 C-188.765 322.245 -191.277 322.194 -193.816 322.19 C-194.587 322.185 -195.358 322.18 -196.152 322.175 C-198.704 322.161 -201.256 322.154 -203.809 322.148 C-205.584 322.143 -207.359 322.137 -209.133 322.131 C-212.857 322.121 -216.58 322.115 -220.303 322.111 C-225.068 322.106 -229.832 322.082 -234.597 322.053 C-238.265 322.035 -241.932 322.03 -245.6 322.028 C-247.356 322.025 -249.112 322.017 -250.868 322.004 C-253.329 321.987 -255.789 321.989 -258.249 321.995 C-258.971 321.986 -259.693 321.977 -260.436 321.967 C-265.087 322.005 -268.282 322.886 -272.227 325.352 Z M-81.711 354.691 C-89.697 363.137 -94.788 372.986 -97.227 384.352 C-97.492 385.407 -97.758 386.463 -98.031 387.551 C-98.622 390.777 -98.881 393.133 -98.227 396.352 C-96.05 398.891 -93.768 400.554 -91 402.426 C-84.597 406.872 -79.998 413.168 -76.234 419.918 C-75.736 420.628 -75.736 420.628 -75.227 421.352 C-74.567 421.352 -73.907 421.352 -73.227 421.352 C-71.755 419.358 -70.388 417.363 -69.039 415.289 C-63.755 407.428 -58.104 401.657 -50.227 396.352 C-51.75 378.634 -56.385 363.885 -70.164 351.602 C-75.543 347.649 -77.309 350.666 -81.711 354.691 Z M-357.227 354.352 C-349.573 368.383 -341.289 379.973 -330.227 391.352 C-329.688 391.912 -329.149 392.473 -328.594 393.05 C-301.904 420.398 -263.405 433.8 -225.734 434.391 C-207.643 434.332 -190.267 430.159 -173.227 424.352 C-173.66 423.072 -173.66 423.072 -174.102 421.766 C-176.815 412.626 -177.638 404.08 -177.664 394.539 C-177.679 392.813 -177.679 392.813 -177.693 391.051 C-177.677 389.427 -177.677 389.427 -177.66 387.77 C-177.65 386.798 -177.641 385.826 -177.631 384.825 C-177.227 382.352 -177.227 382.352 -175.974 380.538 C-168.701 375.601 -153.436 380.789 -145.319 382.232 C-142.537 382.727 -139.752 383.208 -136.967 383.688 C-135.174 383.999 -133.382 384.312 -131.59 384.625 C-130.769 384.768 -129.948 384.911 -129.102 385.058 C-124.079 385.954 -119.163 387.062 -114.227 388.352 C-114.019 387.215 -113.811 386.078 -113.598 384.906 C-111.75 375.442 -109.276 367.434 -104.617 358.977 C-103.071 356.552 -103.071 356.552 -103.227 354.352 C-187.047 354.352 -270.867 354.352 -357.227 354.352 Z M-161.227 396.352 C-161.735 409.838 -157.738 420.879 -149.227 431.352 C-148.6 432.184 -147.974 433.017 -147.328 433.875 C-131.817 452.154 -105.259 453.258 -83.227 456.352 C-82.718 442.865 -86.715 431.824 -95.227 421.352 C-95.853 420.519 -96.48 419.686 -97.125 418.828 C-112.636 400.549 -139.194 399.446 -161.227 396.352 Z M-3.672 398.64 C-5.273 398.903 -6.875 399.16 -8.478 399.411 C-25.64 402.101 -42.194 407.331 -53.641 421.297 C-58.344 428.06 -61.977 434.331 -64.227 442.352 C-64.404 442.952 -64.581 443.552 -64.764 444.17 C-65.301 446.701 -65.323 449.016 -65.289 451.602 C-65.28 452.494 -65.271 453.386 -65.262 454.305 C-65.25 454.98 -65.239 455.656 -65.227 456.352 C-60.174 455.609 -55.125 454.845 -50.078 454.063 C-48.366 453.8 -46.653 453.543 -44.94 453.292 C-30.845 451.22 -18.83 448.06 -7.227 439.352 C-6.402 438.739 -5.577 438.127 -4.727 437.496 C4.254 429.793 10.443 417.885 12.773 406.352 C12.989 402.998 12.966 399.705 12.773 396.352 C7.319 396.352 1.706 397.749 -3.672 398.64 Z " fill="#000000" transform="translate(450.2265625,21.6484375)"/>
<path d="M0 0 C5.917 3.576 10.364 8.978 12.562 15.5 C12.83 18.401 12.83 18.401 12.853 21.632 C12.866 22.847 12.879 24.062 12.892 25.314 C12.894 26.619 12.896 27.925 12.898 29.27 C12.905 30.633 12.912 31.997 12.919 33.361 C12.931 36.216 12.934 39.072 12.933 41.927 C12.933 45.569 12.96 49.209 12.995 52.851 C13.017 55.667 13.021 58.484 13.02 61.3 C13.023 63.29 13.045 65.28 13.067 67.269 C13.025 75.615 12.253 81.289 6.598 87.742 C5.947 88.281 5.296 88.82 4.625 89.375 C3.977 89.929 3.328 90.484 2.66 91.055 C-3.841 95.534 -10.809 95.175 -18.438 94.5 C-25.097 92.819 -29.623 88.036 -33.438 82.5 C-35.265 78.668 -35.698 75.598 -35.728 71.368 C-35.741 70.153 -35.754 68.938 -35.767 67.686 C-35.769 66.381 -35.771 65.075 -35.773 63.73 C-35.78 62.367 -35.787 61.003 -35.794 59.639 C-35.806 56.784 -35.809 53.928 -35.808 51.073 C-35.808 47.431 -35.835 43.791 -35.87 40.149 C-35.892 37.333 -35.896 34.516 -35.895 31.7 C-35.898 29.71 -35.92 27.72 -35.942 25.731 C-35.9 17.385 -35.128 11.711 -29.473 5.258 C-28.822 4.719 -28.171 4.18 -27.5 3.625 C-26.852 3.071 -26.203 2.516 -25.535 1.945 C-18.471 -2.922 -7.844 -3.476 0 0 Z M-16.75 17.312 C-19.257 20.562 -19.566 23.174 -19.599 27.152 C-19.608 28.093 -19.618 29.034 -19.628 30.004 C-19.632 31.02 -19.636 32.036 -19.641 33.082 C-19.646 34.129 -19.652 35.176 -19.658 36.255 C-19.667 38.471 -19.674 40.688 -19.678 42.905 C-19.687 46.289 -19.718 49.672 -19.75 53.057 C-19.757 55.211 -19.762 57.365 -19.766 59.52 C-19.778 60.529 -19.79 61.539 -19.803 62.579 C-19.786 67.954 -19.549 71.892 -16.438 76.5 C-13.597 77.92 -11.583 77.815 -8.438 77.5 C-5.59 75.268 -4.588 73.95 -3.438 70.5 C-3.336 68.952 -3.289 67.4 -3.276 65.848 C-3.267 64.907 -3.257 63.966 -3.247 62.996 C-3.243 61.98 -3.239 60.964 -3.234 59.918 C-3.226 58.348 -3.226 58.348 -3.217 56.745 C-3.208 54.529 -3.201 52.312 -3.197 50.095 C-3.188 46.711 -3.157 43.328 -3.125 39.943 C-3.118 37.789 -3.113 35.635 -3.109 33.48 C-3.097 32.471 -3.085 31.461 -3.072 30.421 C-3.089 25.046 -3.326 21.108 -6.438 16.5 C-10.233 14.602 -13.411 14.695 -16.75 17.312 Z " fill="#000000" transform="translate(307.4375,129.5)"/>
</svg>